<svg xmlns:dc="http://purl.org/dc/elements/1.1/" xmlns:cc="http://creativecommons.org/ns#" xmlns:rdf="http://www.w3.org/1999/02/22-rdf-syntax-ns#" xmlns:svg="http://www.w3.org/2000/svg" xmlns="http://www.w3.org/2000/svg" id="svg139825" viewBox="0 0 1024 768" height="768px" width="1024px" version="1.1">
  <metadata id="metadata139831">
    <rdf:rdf>
      <cc:work rdf:about="">
        <dc:format>image/svg+xml</dc:format>
        <dc:type rdf:resource="http://purl.org/dc/dcmitype/StillImage"></dc:type>
      </cc:work>
    </rdf:rdf>
  </metadata>
  <defs id="defs139829"></defs>
  <g id="logo-group">
    <g id="title" style="font-style:normal;font-weight:300;font-size:72px;line-height:1;font-family:'Montserrat Light Alt1';font-variant-ligatures:none;text-align:center;text-anchor:middle">
      <path id="path139833" style="font-style: normal; font-weight: 300; font-size: 72px; line-height: 1; font-family: &quot;Montserrat Light Alt1&quot;; font-variant-ligatures: none; text-align: center; text-anchor: middle; fill: rgb(255, 116, 115);" d="m 318.83862,118.488 c 3.312,1.296 6.84,1.872 10.584,1.872 3.96001,0 7.344,-0.576 10.08001,-1.8 2.736,-1.152 4.752,-2.808 6.048,-4.824 1.296,-2.016 2.01599,-4.248 2.01599,-6.696 0,-2.952 -0.79199,-5.328 -2.376,-7.056 -1.584,-1.728 -3.456,-3.096 -5.616,-3.96 -2.232,-0.864 -5.184,-1.728 -8.856,-2.664 -3.31199,-0.792 -5.976,-1.584 -7.84799,-2.304 -1.94401,-0.72 -3.52801,-1.728 -4.82401,-3.096 -1.29599,-1.296 -1.944,-3.096 -1.944,-5.4 0,-2.952 1.152,-5.4 3.6,-7.272 2.376,-1.872 5.904,-2.808 10.58401,-2.808 2.30399,0 4.68,0.36 7.12799,1.08 2.448,0.72 4.68,1.8 6.69601,3.168 l 1.368,-2.952 c -2.01601,-1.368 -4.32,-2.448 -6.98401,-3.312 -2.736,-0.792 -5.472,-1.224 -8.20799,-1.224 -4.03201,0 -7.344,0.648 -10.00801,1.8 -2.664,1.224 -4.608,2.88 -5.904,4.896 -1.296,2.016 -1.94399,4.248 -1.94399,6.696 0,3.024 0.71999,5.472 2.30399,7.272 1.584,1.8 3.456,3.096 5.688,3.96 2.232,0.864 5.184,1.8 8.928,2.664 3.24,0.792 5.83201,1.512 7.776,2.232 1.872,0.72 3.528,1.8 4.824,3.096 1.296,1.368 1.94401,3.168 1.94401,5.4 0,2.952 -1.22401,5.328 -3.67201,7.128 -2.44799,1.872 -6.12,2.736 -10.872,2.736 -3.31199,0 -6.47999,-0.576 -9.50399,-1.728 -3.024,-1.152 -5.40001,-2.736 -7.12801,-4.608 l -1.65599,2.736 c 1.87199,2.016 4.464,3.672 7.77599,4.968 z" transform="translate(0 230.704) translate(107.20357159999992 106.7768) scale(1.82) translate(-311.06263 -69.24)"></path>
      <path id="path139835" style="font-style: normal; font-weight: 300; font-size: 72px; line-height: 1; font-family: &quot;Montserrat Light Alt1&quot;; font-variant-ligatures: none; text-align: center; text-anchor: middle; fill: rgb(255, 116, 115);" d="M 368.9945,72.912 V 120 h 3.672 V 72.912 h 18.144 V 69.6 h -39.96 v 3.312 z" transform="translate(0 230.704) translate(188.71749499999993 107.432) scale(1.82) translate(-350.8505 -69.6)"></path>
      <path id="path139837" style="font-style: normal; font-weight: 300; font-size: 72px; line-height: 1; font-family: &quot;Montserrat Light Alt1&quot;; font-variant-ligatures: none; text-align: center; text-anchor: middle; fill: rgb(255, 116, 115);" d="m 426.4145,102.36 c 3.744,-1.08 6.696,-2.952 8.712,-5.688 2.016,-2.736 3.096,-6.048 3.096,-10.08 0,-5.256 -1.8,-9.432 -5.4,-12.456 -3.6,-3.024 -8.568,-4.536 -14.904,-4.536 h -18.072 v 3.312 h 18.072 c 5.328,0 9.432,1.224 12.312,3.6 2.808,2.376 4.248,5.76 4.248,10.08 0,4.392 -1.44,7.776 -4.248,10.152 -2.88,2.376 -6.984,3.528 -12.312,3.528 h -18.072 V 120 h 3.672 v -16.488 h 14.4 c 1.44,0 3.096,-0.072 4.896,-0.36 L 434.8385,120 h 4.176 z" transform="translate(0 230.704) translate(286.9902149999999 107.432) scale(1.82) translate(-399.8465 -69.6)"></path>
      <path id="path139839" style="font-style: normal; font-weight: 300; font-size: 72px; line-height: 1; font-family: &quot;Montserrat Light Alt1&quot;; font-variant-ligatures: none; text-align: center; text-anchor: middle; fill: rgb(255, 116, 115);" d="M 451.73712,69.6 V 120 h 3.67201 V 69.6 Z" transform="translate(0 230.704) translate(390.5311433999999 107.432) scale(1.82) translate(-451.73712 -69.6)"></path>
      <path id="path139841" style="font-style: normal; font-weight: 300; font-size: 72px; line-height: 1; font-family: &quot;Montserrat Light Alt1&quot;; font-variant-ligatures: none; text-align: center; text-anchor: middle; fill: rgb(255, 116, 115);" d="m 516.3155,81.84 c -2.304,-3.816 -5.472,-6.768 -9.504,-9 -4.032,-2.16 -8.712,-3.24 -13.896,-3.24 h -19.944 v 3.312 h 19.656 c 4.608,0 8.712,0.936 12.312,2.808 3.528,1.872 6.264,4.464 8.208,7.704 1.872,3.312 2.88,7.128 2.88,11.376 0,4.32 -1.008,8.064 -2.88,11.376 -1.944,3.312 -4.68,5.904 -8.208,7.776 -3.6,1.872 -7.704,2.736 -12.312,2.736 h -15.984 V 94.8 h -3.672 V 120 h 19.944 c 5.184,0 9.864,-1.08 13.896,-3.24 4.032,-2.16 7.2,-5.112 9.504,-8.928 2.232,-3.816 3.384,-8.136 3.384,-13.032 0,-4.824 -1.152,-9.144 -3.384,-12.96 z" transform="translate(0 230.704) translate(438.2777149999999 107.432) scale(1.82) translate(-472.9715 -69.6)"></path>
      <path id="path139843" style="font-style: normal; font-weight: 300; font-size: 72px; line-height: 1; font-family: &quot;Montserrat Light Alt1&quot;; font-variant-ligatures: none; text-align: center; text-anchor: middle; fill: rgb(255, 116, 115);" d="m 565.07187,92.784 h -32.616 v 3.24 h 32.616 z m 0,-23.184 h -32.616 v 3.312 h 32.616 z m -32.616,47.088 V 120 h 32.616 v -3.312 z" transform="translate(0 230.704) translate(555.6392684 107.432) scale(1.82) translate(-532.45587 -69.6)"></path>
      <path id="path139845" style="font-style: normal; font-weight: 300; font-size: 72px; line-height: 1; font-family: &quot;Montserrat Light Alt1&quot;; font-variant-ligatures: none; text-align: center; text-anchor: middle; fill: rgb(255, 116, 115);" d="m 580.69025,69.6 v 3.312 h 32.256 V 69.6 Z m 0,50.4 h 3.672 V 97.752 h 28.584 V 94.44 h -32.256 z" transform="translate(0 230.704) translate(652.52584 107.432) scale(1.82) translate(-580.69025 -69.6)"></path>
      <path id="path139847" style="font-style: normal; font-weight: 300; font-size: 72px; line-height: 1; font-family: &quot;Montserrat Light Alt1&quot;; font-variant-ligatures: none; text-align: center; text-anchor: middle; fill: rgb(255, 116, 115);" d="m 630.93612,114.816 c 3.528,3.744 8.49601,5.544 14.904,5.544 6.336,0 11.30401,-1.8 14.904,-5.544 3.528,-3.672 5.32801,-9.072 5.32801,-16.2 V 69.6 h -3.67201 v 28.872 c 0,6.192 -1.44,10.872 -4.248,13.896 -2.88,3.096 -6.91199,4.608 -12.23999,4.608 -5.40001,0 -9.504,-1.512 -12.312,-4.608 -2.88,-3.024 -4.24801,-7.704 -4.24801,-13.896 V 69.6 h -3.672 v 29.016 c 0,7.128 1.72801,12.528 5.256,16.2 z" transform="translate(0 230.704) translate(743.5074034 107.432) scale(1.82) translate(-625.68012 -69.6)"></path>
      <path id="path139849" style="font-style: normal; font-weight: 300; font-size: 72px; line-height: 1; font-family: &quot;Montserrat Light Alt1&quot;; font-variant-ligatures: none; text-align: center; text-anchor: middle; fill: rgb(255, 116, 115);" d="M 683.20587,69.6 V 120 h 32.688 v -3.312 H 686.87788 V 69.6 Z" transform="translate(0 230.704) translate(857.3042684 107.432) scale(1.82) translate(-683.20587 -69.6)"></path>
    </g>
    <g id="tagline" style="font-style:normal;font-weight:400;font-size:32px;line-height:1;font-family:Montserrat;font-variant-ligatures:none;text-align:center;text-anchor:middle"></g>
  </g>
</svg>